<mxfile host="drawio-plugin" modified="2021-05-25T10:04:11.590Z" agent="5.0 (Macintosh; Intel Mac OS X 10_16_0) AppleWebKit/537.36 (KHTML, like Gecko) Chrome/84.0.4147.105 Safari/537.36" etag="rUqTl1EVShvnjpNDC4wQ" version="14.6.6" type="embed"><diagram id="0HibIElJjRXc8oUL2_Bw" name="Page-1"><mxGraphModel dx="986" dy="698" grid="1" gridSize="10" guides="1" tooltips="1" connect="1" arrows="1" fold="1" page="1" pageScale="1" pageWidth="850" pageHeight="1100" math="0" shadow="0"><root><mxCell id="0"/><mxCell id="1" parent="0"/><mxCell id="2" value="" style="rounded=0;whiteSpace=wrap;html=1;" parent="1" vertex="1"><mxGeometry x="180" y="350" width="390" height="310" as="geometry"/></mxCell><mxCell id="3" value="event card&lt;br&gt;" style="text;html=1;align=center;verticalAlign=middle;resizable=0;points=[];autosize=1;strokeColor=none;" parent="1" vertex="1"><mxGeometry x="200" y="360" width="70" height="20" as="geometry"/></mxCell><mxCell id="4" value="author" style="text;html=1;strokeColor=none;fillColor=none;align=center;verticalAlign=middle;whiteSpace=wrap;rounded=0;" parent="1" vertex="1"><mxGeometry x="200" y="390" width="40" height="20" as="geometry"/></mxCell><mxCell id="5" value="chapter" style="text;html=1;strokeColor=none;fillColor=none;align=center;verticalAlign=middle;whiteSpace=wrap;rounded=0;" parent="1" vertex="1"><mxGeometry x="200" y="420" width="40" height="20" as="geometry"/></mxCell><mxCell id="6" value="note" style="rounded=1;whiteSpace=wrap;html=1;" parent="1" vertex="1"><mxGeometry x="190" y="440" width="380" height="110" as="geometry"/></mxCell><mxCell id="7" value="comment" style="rounded=1;whiteSpace=wrap;html=1;" parent="1" vertex="1"><mxGeometry x="190" y="550" width="380" height="110" as="geometry"/></mxCell><mxCell id="8" value="time" style="text;html=1;strokeColor=none;fillColor=none;align=center;verticalAlign=middle;whiteSpace=wrap;rounded=0;" parent="1" vertex="1"><mxGeometry x="405" y="360" width="40" height="20" as="geometry"/></mxCell><mxCell id="17" style="edgeStyle=orthogonalEdgeStyle;curved=1;rounded=0;orthogonalLoop=1;jettySize=auto;html=1;entryX=0.567;entryY=1.017;entryDx=0;entryDy=0;entryPerimeter=0;" parent="1" source="9" target="15" edge="1"><mxGeometry relative="1" as="geometry"/></mxCell><mxCell id="9" value="id 001.txt" style="rounded=0;whiteSpace=wrap;html=1;" parent="1" vertex="1"><mxGeometry x="720" y="490" width="120" height="60" as="geometry"/></mxCell><mxCell id="13" value="" style="endArrow=none;dashed=1;html=1;dashPattern=1 3;strokeWidth=2;exitX=1;exitY=0.75;exitDx=0;exitDy=0;edgeStyle=orthogonalEdgeStyle;curved=1;entryX=0;entryY=0.75;entryDx=0;entryDy=0;" parent="1" source="6" target="9" edge="1"><mxGeometry width="50" height="50" relative="1" as="geometry"><mxPoint x="590" y="620" as="sourcePoint"/><mxPoint x="809.81" y="779.03" as="targetPoint"/></mxGeometry></mxCell><mxCell id="15" value="output.txt" style="rounded=0;whiteSpace=wrap;html=1;" parent="1" vertex="1"><mxGeometry x="930" y="400" width="120" height="60" as="geometry"/></mxCell></root></mxGraphModel></diagram></mxfile>